<svg xmlns="http://www.w3.org/2000/svg" viewBox="0 0 1600 900" preserveAspectRatio="xMidYMid slice">
  <defs>
    <linearGradient id="sky" x1="0" x2="0" y1="0" y2="1">
      <stop offset="0" stop-color="#10203e"/>
      <stop offset="0.58" stop-color="#1e3557"/>
      <stop offset="1" stop-color="#18333c"/>
    </linearGradient>
    <radialGradient id="moonGlow" cx="0.28" cy="0.18" r="0.22">
      <stop offset="0" stop-color="#f4f7ff" stop-opacity="0.86"/>
      <stop offset="0.46" stop-color="#b9d8ff" stop-opacity="0.24"/>
      <stop offset="1" stop-color="#b9d8ff" stop-opacity="0"/>
    </radialGradient>
    <linearGradient id="hillA" x1="0" x2="0" y1="0" y2="1">
      <stop offset="0" stop-color="#35636f"/>
      <stop offset="1" stop-color="#1f4652"/>
    </linearGradient>
    <linearGradient id="hillB" x1="0" x2="0" y1="0" y2="1">
      <stop offset="0" stop-color="#29495a"/>
      <stop offset="1" stop-color="#17313e"/>
    </linearGradient>
  </defs>
  <rect width="1600" height="900" fill="url(#sky)"/>
  <rect width="1600" height="900" fill="url(#moonGlow)"/>
  <circle cx="448" cy="148" r="42" fill="#f4f7ff" opacity="0.88"/>
  <g fill="#d9e8ff" opacity="0.72">
    <circle cx="175" cy="116" r="2"/><circle cx="310" cy="218" r="1.5"/><circle cx="670" cy="110" r="2.4"/><circle cx="842" cy="240" r="1.5"/><circle cx="1124" cy="154" r="2.1"/><circle cx="1398" cy="102" r="1.7"/>
    <circle cx="1240" cy="285" r="1.4"/><circle cx="96" cy="314" r="1.3"/><circle cx="990" cy="78" r="1.2"/><circle cx="1510" cy="234" r="2"/>
  </g>
  <path d="M0 535 C210 462 370 492 535 428 C770 338 950 404 1170 348 C1330 306 1480 326 1600 286 L1600 900 L0 900Z" fill="#406a73" opacity="0.46"/>
  <path d="M0 630 C190 552 360 582 560 520 C760 458 950 514 1165 460 C1350 414 1480 434 1600 396 L1600 900 L0 900Z" fill="url(#hillA)" opacity="0.66"/>
  <path d="M0 718 C220 662 395 690 585 642 C815 585 1030 648 1200 604 C1380 558 1515 590 1600 560 L1600 900 L0 900Z" fill="url(#hillB)" opacity="0.86"/>
  <g fill="#162c38" opacity="0.58">
    <path d="M154 668 l24 -58 l25 58 h-16 l30 56 h-78 l30 -56Z"/>
    <path d="M280 688 l18 -46 l21 46 h-13 l23 44 h-60 l23 -44Z"/>
    <path d="M1360 646 l29 -74 l31 74 h-19 l34 62 h-90 l34 -62Z"/>
    <path d="M1480 680 l22 -54 l24 54 h-15 l27 48 h-72 l27 -48Z"/>
  </g>
</svg>
